<mxfile host="app.diagrams.net" modified="2024-03-18T22:40:51.489Z" agent="Mozilla/5.0 (Windows NT 10.0; Win64; x64) AppleWebKit/537.36 (KHTML, like Gecko) Chrome/122.0.0.0 Safari/537.36" etag="kE3OUxeOnUuMUVP6BDbz" version="21.7.2" type="google">
  <diagram name="PÃ¡gina-1" id="Yv4wy5ySqJd-wpb_K026">
    <mxGraphModel grid="1" page="1" gridSize="10" guides="1" tooltips="1" connect="1" arrows="1" fold="1" pageScale="1" pageWidth="827" pageHeight="1169" math="0" shadow="0">
      <root>
        <mxCell id="0" />
        <mxCell id="1" parent="0" />
        <mxCell id="9hUXreb1d-5yCWlgH5Yh-2" value="" style="endArrow=classic;html=1;rounded=0;entryX=0;entryY=0.25;entryDx=0;entryDy=0;exitX=1;exitY=0.25;exitDx=0;exitDy=0;" edge="1" parent="1">
          <mxGeometry width="50" height="50" relative="1" as="geometry">
            <mxPoint x="190" y="170" as="sourcePoint" />
            <mxPoint x="310" y="170" as="targetPoint" />
          </mxGeometry>
        </mxCell>
        <mxCell id="9hUXreb1d-5yCWlgH5Yh-4" value="" style="endArrow=classic;html=1;rounded=0;entryX=1;entryY=0.5;entryDx=0;entryDy=0;exitX=0;exitY=0.5;exitDx=0;exitDy=0;" edge="1" parent="1">
          <mxGeometry width="50" height="50" relative="1" as="geometry">
            <mxPoint x="310" y="210" as="sourcePoint" />
            <mxPoint x="190" y="210" as="targetPoint" />
          </mxGeometry>
        </mxCell>
        <mxCell id="9hUXreb1d-5yCWlgH5Yh-6" value="" style="endArrow=classic;html=1;rounded=0;entryX=0;entryY=0.25;entryDx=0;entryDy=0;exitX=1;exitY=0.25;exitDx=0;exitDy=0;" edge="1" parent="1">
          <mxGeometry width="50" height="50" relative="1" as="geometry">
            <mxPoint x="390" y="170" as="sourcePoint" />
            <mxPoint x="510" y="170" as="targetPoint" />
          </mxGeometry>
        </mxCell>
        <mxCell id="9hUXreb1d-5yCWlgH5Yh-8" value="" style="endArrow=classic;html=1;rounded=0;entryX=1;entryY=0.5;entryDx=0;entryDy=0;exitX=0;exitY=0.5;exitDx=0;exitDy=0;" edge="1" parent="1">
          <mxGeometry width="50" height="50" relative="1" as="geometry">
            <mxPoint x="510" y="210" as="sourcePoint" />
            <mxPoint x="390" y="210" as="targetPoint" />
          </mxGeometry>
        </mxCell>
        <mxCell id="9hUXreb1d-5yCWlgH5Yh-10" value="" style="shape=image;verticalLabelPosition=bottom;labelBackgroundColor=default;verticalAlign=top;aspect=fixed;imageAspect=0;image=data:image/svg+xml,PHN2ZyB4bWxucz0iaHR0cDovL3d3dy53My5vcmcvMjAwMC9zdmciIGhlaWdodD0iMzYxOC42IiB3aWR0aD0iMzYxOC42IiB2aWV3Qm94PSIwIDAgMzYxOC42IDM2MTguNiIgaWQ9IkxheWVyXzIiPjxzdHlsZT4uc3Qwe2ZpbGw6IzIyMn0uc3Qxe2ZpbGw6IzAwZDhmZn0uc3Qye2ZpbGw6bm9uZTtzdHJva2U6IzAwZDhmZjtzdHJva2Utd2lkdGg6MTQ0Ljc0NTY7c3Ryb2tlLW1pdGVybGltaXQ6MTB9PC9zdHlsZT48cGF0aCBkPSJNMCAwaDM2MTguNnYzNjE4LjZIMHoiIGNsYXNzPSJzdDAiLz48Y2lyY2xlIHI9IjMwMi42IiBjeT0iMTgwNy4xIiBjeD0iMTgwNi41IiBjbGFzcz0ic3QxIi8+PHBhdGggZD0iTTE4MDYuNSAxMTkxLjljNDA2LjIgMCA3ODMuNiA1OC4zIDEwNjguMSAxNTYuMiAzNDIuOCAxMTggNTUzLjYgMjk2LjkgNTUzLjYgNDU4LjkgMCAxNjguOC0yMjMuNCAzNTguOS01OTEuNSA0ODAuOC0yNzguMyA5Mi4yLTY0NC42IDE0MC40LTEwMzAuMiAxNDAuNC0zOTUuNCAwLTc2OS43LTQ1LjItMTA1MS4yLTE0MS40LTM1Ni4xLTEyMS43LTU3MC42LTMxNC4yLTU3MC42LTQ3OS44IDAtMTYwLjcgMjAxLjMtMzM4LjIgNTM5LjMtNDU2IDI4NS42LTk5LjUgNjcyLjMtMTU5LjEgMTA4Mi41LTE1OS4xeiIgY2xhc3M9InN0MiIvPjxwYXRoIGQ9Ik0xMjcxIDE1MDEuM2MyMDIuOS0zNTEuOSA0NDItNjQ5LjcgNjY5LTg0Ny4yIDI3My41LTIzOCA1MzMuOC0zMzEuMiA2NzQuMS0yNTAuMyAxNDYuMiA4NC4zIDE5OS4zIDM3Mi44IDEyMSA3NTIuNy01OS4yIDI4Ny4yLTIwMC40IDYyOC41LTM5My4xIDk2Mi42LTE5Ny41IDM0Mi41LTQyMy43IDY0NC4yLTY0Ny42IDg0MC0yODMuMyAyNDcuNy01NTcuMyAzMzcuMy03MDAuNyAyNTQuNi0xMzkuMi04MC4zLTE5Mi40LTM0My4zLTEyNS43LTY5NSA1Ni40LTI5Ny40IDE5OC02NjIuMSA0MDMtMTAxNy40eiIgY2xhc3M9InN0MiIvPjxwYXRoIGQ9Ik0xMjcxLjUgMjExOS44Yy0yMDMuNS0zNTEuNi0zNDIuMS03MDcuNC0zOTkuOS0xMDAyLjctNjkuNi0zNTUuOC0yMC40LTYyNy45IDExOS44LTcwOSAxNDYuMS04NC42IDQyMi41IDEzLjUgNzEyLjUgMjcxIDIxOS4zIDE5NC43IDQ0NC40IDQ4Ny41IDYzNy42IDgyMS4zIDE5OC4xIDM0Mi4yIDM0Ni42IDY4OC44IDQwNC4zIDk4MC41IDczLjEgMzY5LjIgMTMuOSA2NTEuMy0xMjkuNCA3MzQuMi0xMzkuMSA4MC41LTM5My41LTQuNy02NjQuOS0yMzguMi0yMjkuMi0xOTcuMy00NzQuNS01MDIuMS02ODAtODU3LjF6IiBjbGFzcz0ic3QyIi8+PC9zdmc+;" vertex="1" parent="1">
          <mxGeometry x="100" y="145" width="90" height="90" as="geometry" />
        </mxCell>
        <mxCell id="9hUXreb1d-5yCWlgH5Yh-11" value="" style="shape=image;verticalLabelPosition=bottom;labelBackgroundColor=default;verticalAlign=top;aspect=fixed;imageAspect=0;image=data:image/png,iVBORw0KGgoAAAANSUhEUgAAAOEAAADhCAMAAAAJbSJIAAAAhFBMVEX///8AAAD4+Ph+fn7z8/Pu7u5sbGxZWVmwsLDFxcX8/PyOjo7q6ur39/fm5uZ4eHjY2NilpaU2NjYkJCTb29vNzc20tLRBQUFxcXGcnJxPT08YGBi7u7spKSmIiIjh4eEwMDBERERlZWU5OTlCQkKVlZUMDAxWVlYeHh5gYGBLS0sTExNj2DdeAAAMb0lEQVR4nN2d14LiOgyGHQgwJLQAoQ1DKEud93+/E9pguSQucgznv9ydyfrbKLYkyzIJHOswWk8XrWZ/Fcf7fXxXPdds1jwvpj/frv/9gDh89mHajJNlOujUiFjdXtqezPvHkcNBuCNcrNpZJ4wkbICz0Rt8NX9cDcQB4WjTT8YKZIxqy3g7POAPB5twtE3aHX28hwbL/QV5QMiEi2UvNMa7qzPY4xosHuF6O5HNKLrK9he8ORaLcJEMkPBuarRjrDeJQ9hMG5h8V0XZ1w5lbAiEl7351FKstL9+A8Jj4orvqsHKmtGScLREN0+oKIt9EraWbvHuCuOpJ8JN0q0CMFe2svBczQnnju2TVjRuVk04qlfId1PaqpTwmFbMlyv8MvMBjAirNFBK4201hIezywWwWO1hBYQ/iUpU60rZyjnhsOeRL1e0dEt4mvvlu6qhuXBoEQ49TKG8uokzwpZB9sWJ2jrxsQbhG1joUx0NS1Um/PnyjUWrW0cn/HmLT/Cl2hyZ8FJVGKEu1Y9RjXDmx00rVlstj6NE2H+/N3jVQCnDoUK48o0iU00l+C8nPMx9OqLF6p0xCN8YMHfhFvaEb7TOC1WKWEL4ziZ6V6PMUEsIY98A5eqVTDfFhG87i9KqFS8ahYT1dzfRuwaFb7GI8Gi721mVCh24AsLdZ7zBq9pGhDvULU/HKog0pISHSnZdsBTJ40Up4VsFvOWqSaN+GWHf95B11ZHNNhLChb+8tqlks42YcPhJs8xTkiSjmHDie7Qm6oo/RSHh1vdgzdRQJry8Y1ZGRcJPUUD43fY9UlMJV0UB4cctFC9lgv1FnnDke5g2EtgpT/hR3honfj7lCPufE1GINOYqb1jCaeZ7jJb6KiNMfI/QViFbd8MQfvseoL3SYsKPXQopzYoIZ++5BaMnZrIBhKf/wyskJJYT1n2PDUfZVEr4eWGvWHsZYdP3yLAUSQhPngu6EDUXE64+21+jla1FhP+TifSuWEQ48z0qTI2HAsK3KAkKx4OrxtYfTJ8nPGEM0FbJYje8ane2/f9OecJ3SCDSzojtrsKUJbSv/e32xlk2znrmrm0KHEpLQ52whNZLxfz4b3fV5mh8FAMmrS2LWXtrSDiytHuYbzZEhJuAtl/iHhK27MKmCHiChkFYBGMC2+W5fQKEe7unhUyKy2jaQiYMF4DQsiaBJTyZ7F0hEz6N/k64sXwYSxi0DB6CTdijCW0zbByhiZ1iE5LRi9A6buIJf/TtFJ1w/iLc2pYG8YQG8yk64fhFaF1hKSDUd7tqcG/Mfv/kXnx6JbRd7sWE2lkfhhCh3GX/JLTf8xUSNjXbZOATLg8PQvvYV0ioO5/iE453D0L7wElMqLnu4xOS7YPQPk0qJtRc9x0Q7u+EB/snSQj1rMMBYftOiJAIlhFqrfsOCMmdEGFTVEYY9DXmUxeEwxshQg2blFBn3XZB2L8SYpzOlhNqxPsuCCdXwjNCjVcB4Uw5AeSCcHwlxNiuKCBUt1MXhL11TohRfVFEOFJNmrkgbJwDglKxXkQYnBUf4oIwfyaxDyxICaFqpOeCMI+CyRRjX5QhZNpzrNXqrJwQTgKywGgFyBA2mJKWutK/4YSwfSKqX0mhWMIBUz+n9K07IRysCUq9LEPYee2LPKSSCHJC2NkQlCOGHCFhTnaq1HQ6IYwWBKUYkSdkSq9+FeZTJ4T5V4hSn8AT3nMkLw3L51M3hDOCcjqGnWnyP4r64I8UkkFuCPsEpSaYIbx9dCEkLF/33RDWCUqZkIiQrZsvtVM3hEin0YWEEePalAUxn0dIekx7lRIP+AMJuZLr4pf4iYSEOYdU7F18JGHvH/jz4jNjH0lI0hP4i39FodpnEsKC5OJK8g8lJL8QsWA+/VTCATxFPpVvA30qIVMuFcTSJYMhRCqWdE9IQnhjxUHq6jOESEXZFRA+K3ee+pW9xM8lZOdTWQ3dBxMyzapkGVpXhCgngULYh5q1Q6b930K8F+SGsE5Q+so24MFN7ktjWlaILccVIcohhDJCwvSqEgbDbghnBGeLBxLyP9CDHeMvovypG8ItsawOvquUkLVTUSWdG8IWQTlVWU5Yg/PpSfD5OyEMLwTl0GE5IZt6++F/wgnheEiOGM9RICy3UyeE6YhsMBZEFcIu3HJbc/5pF+aQcQiXB8L/SwZSIWQOIAdnbj6F3h0OYRIQlH47SoSEudaAs9MOiEJQCKM4IChxmBohYVpWcN8HyJLjbBnNckKMBVGRsAHt9MgVu9exCTvTnHCG0MNTkZBMYNaG27uk7RSFMPvNCTEmU1VCpgXQD5dcnCATprfaRIT9NWXCCOZPp9wPrHAJ4xshQlGUMiE7n3J+f3hAJTzeCBFqFdQJmZZqQ84/naASBjfCof2D1AlJB7YYb7Lz6d+uIwZhdicM7KuiNAjZLTduPs12eITJg9A+zNchZLsccYvVFx5h/0Fo/yFqEYbQTs9czuOMRdjYPAhb1tUKWoR/Z5DvOnDz6XiNRHg74H8ltO84q0fIbA0POZcjQSK8Ped2/tA6G6VJSGD+lAvCoyYK4T1PfSNUq/8skC5hG/qnnM/RQyG8J/huhDtb11SXkGk4xjdr3GMQ3v2n+1lu26dpEzLdDbnDQ90mAmGLIrQ9Y6lNSAbgF/gwPLUnfHT8IspjKpI+IWOn/KZi3Xr6WwJCy1SGAWEIU8R82tY6bN0CQkszNSBk+u38ovc4GgwB4c5uk82EkEke/sNuIv5sRvvsMWRX7g0JVZtqbQAiciP4vyE9CVtW/4WQcK34W0xJGG5HvL8g7a/Xl5VvCgkFuy5iwbZJF9TWm39bBH+EJh1l/mRIGMHUG+blS92/p7567tmYqSHhLctACbFZ+ss8XoQ2uW9TQsZO8RreU1H2i3BnkTeFhBqprRpMaaBdWkD1Laf6l1osGI0jPc6Lxm/CUptvJDulHSaK0KKJC3yHC51fhVvDSJeH0Pk8uo+wxUsE49R7DvRPceyUNgya8Nf8kfSF55pdpzJY7Y5RwQT2IUG3a4uAJXyusL97XUObgFNuR3s7jUCVHSDc+ekGDZcM+w4I8AII2Fff07WqIEV8sE6pHAsI1366ssOD0WvLpzF3eDC3P3hqyw6zi3a7DF1IxN1R4unCNRAN23UWjxkilnDrpzF7BFyblkXxRPrDEHF3BXm6aKYHEM3tlKnHFhEqHLp2IliIYvyx8FcE8jda+eo+DzakzoZ9jdlpRkjo7dIuUDBldkwi4mxUSOjrUisQSH0b+adfBx5HdP+hr4suwDe0M3hAR3B1nvgOS1835YLj7QZZlYsIRnwPqaf7WLr0O/jRtlPxVatiwi1G4yEDgVqbreZ8mnLX5hUQevsUQecevfk0k9whL7vT2dN1F7BeX2tSFywUhYS+breq0WPQcZIl9x0XEBYcSXYqcDJaPSJnG1MpEAYzT7MN/TJGqv5pupZyyAkx6k5NBDwvxdRrJAcsIvQVSEX0rK9kp42FlKGY8NvThErnNFSO9NT6coZiwuDk6ZYrOqehMB2I7qpWJLS+sMdQEb0jVWqnbGJGj3DnJzPVoJeMYic5mgsiJg1CX2lw+tBCcdJhLh26IqGvOIMeeMGcHpUCKhD6MVQ6Z7aWzwblgAqEglMfVahDjUBaJxKXfIOKhJ6uRqQ3AcV2yra8syAc+Vj66Yt1hGYUFq+DWoTBtw8Hjj6XISomYi9RtyLM3XAPkUaD+sr4QxmSkN6YMJh5WDXooI/Z/F6qAqoT+giJ6akEdrdY/soHakwYBJPK01P0qkjZaUNtjtEnDFZ290AaiOqi9WoenynOMQaEwbbyj5HalH/uwLeVP0EDwtxWqrZUalW8rcphYbiLQBisKn6NVO3IdVMs1bJQI8JgU/H+IlVlG5NYnLnHJcyXxmo3GKlVUcHRRiEMhkmVX6Oag41LmE+qVQaNDeG+oGPCnLFCF6dzKh8PPmGwnlc3q+r4MHiEQbCraDe8YTCD4hBe40bs81icoo7uEo9KGASLxO3SkcZsnVrVhLmtapc9a/D1bewTizBXK3UAGXWWBXtm6kIhzBkT5JRjlMZ6IYRUSIS5sc4Q/dVwfrY3z4fQCK9qtjv2Cauwl1j5MKxQCfMAp/41tvFZG+l8a+PACIRMmGvYWrXN3mRvMrvYrg288AlvWq+WWUe5Wjtq9AaJrOLHVo4Ir9o091/tQck60u2ly6TeQlkXxHJIeNX3enNs1veTNMvg5xlm43YS98+L6cgkrNXQfwPmplmio4qNAAAAAElFTkSuQmCC;" vertex="1" parent="1">
          <mxGeometry x="310" y="145" width="90" height="90" as="geometry" />
        </mxCell>
        <mxCell id="9hUXreb1d-5yCWlgH5Yh-12" value="" style="shape=image;verticalLabelPosition=bottom;labelBackgroundColor=default;verticalAlign=top;aspect=fixed;imageAspect=0;image=data:image/svg+xml,PHN2ZyB4bWxucz0iaHR0cDovL3d3dy53My5vcmcvMjAwMC9zdmciIHJvbGU9ImltZyIgdmlld0JveD0iMCAwIDI0IDI0IiBoZWlnaHQ9IjgwMHB4IiB3aWR0aD0iODAwcHgiIGZpbGw9IiMwMDAwMDAiPjx0aXRsZT5Qb3N0Z3JlU1FMIGljb248L3RpdGxlPjxwYXRoIGQ9Ik0xNy4xMjggMGExMC4xMzQgMTAuMTM0IDAgMCAwLTIuNzU1LjQwM2wtLjA2My4wMkExMC45MjIgMTAuOTIyIDAgMCAwIDEyLjYuMjU4QzExLjQyMi4yMzggMTAuNDEuNTI0IDkuNTk0IDEgOC43OS43MjEgNy4xMjIuMjQgNS4zNjQuMzM2IDQuMTQuNDAzIDIuODA0Ljc3NSAxLjgxNCAxLjgyLjgyNyAyLjg2NS4zMDUgNC40ODIuNDE1IDYuNjgyYy4wMy42MDcuMjAzIDEuNTk3LjQ5IDIuODc5cy42OSAyLjc4MyAxLjE5MyA0LjE1MmMuNTAzIDEuMzcgMS4wNTQgMi42IDEuOTE1IDMuNDM2LjQzLjQxOSAxLjAyMi43NzEgMS43Mi43NDIuNDktLjAyLjkzMy0uMjM1IDEuMzE1LS41NTIuMTg2LjI0NS4zODUuMzUyLjU2Ni40NTEuMjI4LjEyNS40NS4yMS42OC4yNjYuNDEzLjEwMyAxLjEyLjI0MSAxLjk0OC4xLjI4Mi0uMDQ3LjU3OS0uMTM5Ljg3NS0uMjcuMDExLjMzLjAyNC42NTMuMDM3Ljk4LjA0MSAxLjAzNi4wNjcgMS45OTMuMzc4IDIuODMyLjA1LjEzNy4xODcuODQzLjcyNyAxLjQ2Ni41NC42MjQgMS41OTggMS4wMTMgMi44MDMuNzU1Ljg1LS4xODIgMS45MzEtLjUxIDIuNjQ5LTEuNTMyLjcxLTEuMDEgMS4wMy0yLjQ1OSAxLjA5My00LjgwOS4wMTYtLjEyNy4wMzUtLjIzNS4wNTUtLjMzNmwuMTY5LjAxNWguMDJjLjkwNy4wNDEgMS44OTEtLjA4OCAyLjcxMy0uNDcuNzI4LS4zMzcgMS4yNzktLjY3OCAxLjY4LTEuMjgzLjEtLjE1LjIxLS4zMzEuMjQtLjY0M3MtLjE0OS0uOC0uNDQ2LTEuMDI1Yy0uNTk1LS40NTItLjk2OS0uMjgtMS4zNy0uMTk3YTYuMjcgNi4yNyAwIDAgMS0xLjIwMi4xNDZjMS4xNTYtMS45NDcgMS45ODUtNC4wMTUgMi40NTgtNS44NDUuMjgtMS4wOC40MzctMi4wNzYuNDUtMi45NDcuMDEzLS44NzEtLjA1OC0xLjY0Mi0uNTgtMi4zMDlDMjEuMzYuNiAxOS4wNjcuMDI0IDE3LjI5My4wMDRjLS4wNTUtLjAwMS0uMTEtLjAwMi0uMTY1LS4wMDF6bS0uMDQ3LjY0YzEuNjc4LS4wMTYgMy44MjIuNDU1IDUuMzYxIDIuNDIyLjM0Ni40NDIuNDQ5IDEuMDg4LjQzNyAxLjg4NC0uMDEzLjc5NS0uMTYgMS43NDctLjQyOSAyLjc5LS41MjIgMi4wMi0xLjUwOCA0LjM3NS0yLjg5NyA2LjQ4OGEuNzU2Ljc1NiAwIDAgMCAuMTU4LjA4NmMuMjkuMTIuOTUxLjIyMyAyLjI3LS4wNDguMzMyLS4wNy41NzUtLjExNy44MjcuMDc1YS41Mi41MiAwIDAgMSAuMTgzLjQyNS43MDQuNzA0IDAgMCAxLS4xMy4zMzZjLS4yNTUuMzgzLS43NTguNzQ2LTEuNDAzIDEuMDQ1LS41NzEuMjY2LTEuMzkuNDA1LTIuMTE2LjQxMy0uMzY0LjAwNC0uNy0uMDI0LS45ODUtLjExM2wtLjAxOC0uMDA3Yy0uMTEgMS4wNi0uMzYzIDMuMTUzLS41MjggNC4xMDgtLjEzMi43Ny0uMzYzIDEuMzgyLS44MDQgMS44NC0uNDQuNDU4LTEuMDYzLjczNC0xLjkwMS45MTQtMS4wMzguMjIzLTEuNzk1LS4wMTctMi4yODMtLjQyOC0uNDg3LS40MS0uNzEtLjk1NC0uODQ0LTEuMjg3LS4wOTItLjIzLS4xNC0uNTI4LS4xODYtLjkyNi0uMDQ2LS4zOTgtLjA4LS44ODUtLjEwMy0xLjQzNGE1MS40MjYgNTEuNDI2IDAgMCAxLS4wMy0yLjUyMyAzLjA2MSAzLjA2MSAwIDAgMS0xLjU1Mi43NmMtLjY4OS4xMTctMS4zMDQuMDAyLTEuNjcxLS4wOWEyLjI3NiAyLjI3NiAwIDAgMS0uNTItLjIwMWMtLjE3LS4wOTEtLjMzMi0uMTk0LS40NC0uMzk3YS41Ni41NiAwIDAgMS0uMDU3LS4zODEuNjEuNjEgMCAwIDEgLjIxOC0uMzMxYy4xOTgtLjE2MS40Ni0uMjUxLjg1NS0uMzMzLjcxOS0uMTQ4Ljk3LS4yNDkgMS4xMjMtLjM3LjEzLS4xMDQuMjc3LS4zMTQuNTM3LS42MjJhMS4xNiAxLjE2IDAgMCAxLS4wMDMtLjA0MSAyLjk2IDIuOTYgMCAwIDEtMS4zMy0uMzU4Yy0uMTUuMTU4LS45MTYuOTY4LTEuODUgMi4wOTItLjM5My40Ny0uODI3Ljc0LTEuMjg1Ljc1OS0uNDU4LjAyLS44NzItLjIxMS0xLjIyNC0uNTUyLS43MDMtLjY4My0xLjI2NC0xLjg1OC0xLjc1My0zLjE4Ni0uNDg4LTEuMzI4LS44ODUtMi44MDctMS4xNjctNC4wNjctLjI4My0xLjI2LS40NS0yLjI3Ni0uNDc0LTIuNzY2LS4xMDUtMi4wODIuMzgyLTMuNDg1IDEuMjE3LTQuMzcuODM2LS44ODUgMS45ODItMS4yMiAzLjA5OS0xLjI4NCAyLjAwNS0uMTE1IDMuOTA5LjU4NCA0LjI5NC43MzQuNzQyLS41MDQgMS42OTgtLjgxOCAyLjg5Mi0uNzk4YTcuMzkgNy4zOSAwIDAgMSAxLjY4MS4yMThsLjAyLS4wMDlhNi44NTQgNi44NTQgMCAwIDEgLjczOS0uMjE0QTkuNjI2IDkuNjI2IDAgMCAxIDE3LjA4LjY0MnptLjE1Mi42N2gtLjE0NmE4Ljc0IDguNzQgMCAwIDAtMS43MDQuMTkyYzEuMjQ2LjU1MiAyLjE4NyAxLjQwMiAyLjg1IDIuMjVhOC40NCA4LjQ0IDAgMCAxIDEuMTMyIDEuOTJjLjExLjI2NC4xODQuNDg3LjIyNi42Ni4wMjEuMDg3LjAzNS4xNi4wNC4yMzYuMDAyLjAzOC4wMDQuMDc3LS4wMTIuMTQ0IDAgLjAwMy0uMDA1LjAxLS4wMDYuMDEzLjAzLjg3Ni0uMTg3IDEuNDctLjIxMyAyLjMwNi0uMDIuNjA2LjEzNSAxLjMxOC4xNzMgMi4wOTUuMDM2LjczLS4wNTIgMS41MzItLjUyNiAyLjMxOS4wNC4wNDguMDc2LjA5Ni4xMTQuMTQ0IDEuMjU0LTEuOTc1IDIuMTU4LTQuMTYgMi42NC02LjAyMy4yNTgtMS4wMDMuMzk1LTEuOTEyLjQwNy0yLjYzMi4wMS0uNzItLjEyNC0xLjI0Mi0uMjk1LTEuNDYtMS4zNDItMS43MTYtMy4xNTgtMi4xNTMtNC42OC0yLjE2NXptLTQuNzkuMjU2Yy0xLjE4Mi4wMDMtMi4wMy4zNi0yLjY3My44OTUtLjY2My41NTMtMS4xMDggMS4zMS0xLjQgMi4wODUtLjM0Ny45Mi0uNDY2IDEuODEtLjUxMyAyLjQxNGwuMDEzLS4wMDhjLjM1Ny0uMi44MjYtLjQgMS4zMjgtLjUxNi41MDItLjExNSAxLjA0My0uMTUxIDEuNTMzLjAzOXMuODk1LjYzNyAxLjA0MiAxLjMxNWMuNzA0IDMuMjU3LS4yMTkgNC40NjgtLjU1OSA1LjM4MmE5LjYxIDkuNjEgMCAwIDAtLjMzMSAxLjAxM2MuMDQzLS4wMS4wODYtLjAyMi4xMjktLjAyNi4yNC0uMDIuNDI4LjA2LjU0LjEwOC4zNDIuMTQyLjU3Ny40NC43MDQuNzguMDMzLjA4OS4wNTcuMTg1LjA3MS4yODRhLjMzNi4zMzYgMCAwIDEgLjAyLjEyNyA1NS4xNCA1NS4xNCAwIDAgMCAuMDEzIDMuNzM4Yy4wMjMuNTM4LjA1NyAxLjAxMi4xIDEuMzg2LjA0My4zNzMuMTA0LjY1Ny4xNDMuNzUzLjEyOC4zMi4zMTUuNzM5LjY1MyAxLjAyNC4zMzguMjg0LjgyMy40NzQgMS43MDkuMjg0Ljc2OC0uMTY1IDEuMjQyLS4zOTQgMS41NTktLjcyMy4zMTYtLjMyOS41MDUtLjc4Ny42MjYtMS40ODguMTgxLTEuMDUuNTQ1LTQuMDk1LjU4OS00LjY2OC0uMDItLjQzMi4wNDQtLjc2NC4xODItMS4wMTcuMTQyLS4yNi4zNjItLjQxOS41NTItLjUwNS4wOTUtLjA0My4xODQtLjA3Mi4yNTctLjA5M2E1Ljk1NiA1Ljk1NiAwIDAgMC0uMjQzLS4zMjUgNC40NTYgNC40NTYgMCAwIDEtLjY2Ni0xLjA5OSA4LjI5NiA4LjI5NiAwIDAgMC0uMjU3LS40ODNjLS4xMzMtLjI0LS4zMDEtLjU0LS40NzctLjg3Ny0uMzUyLS42NzUtLjczNS0xLjQ5My0uOTM0LTIuMjktLjE5OC0uNzk2LS4yMjctMS42Mi4yODEtMi4yMDEuNDUtLjUxNiAxLjI0LS43MyAyLjQyNi0uNjEtLjAzNS0uMTA1LS4wNTYtLjE5Mi0uMTE1LS4zMzJhNy44MTcgNy44MTcgMCAwIDAtMS4wNDEtMS43NjRjLTEuMDA1LTEuMjg1LTIuNjMyLTIuNTU5LTUuMTQ2LTIuNmgtLjExNXptLTYuNjQyLjA1MmMtLjEyNyAwLS4yNTQuMDA0LS4zOC4wMTEtMS4wMS4wNTgtMS45NjUuMzUxLTIuNjQ4IDEuMDc1LS42ODQuNzI0LTEuMTM0IDEuOTExLTEuMDM2IDMuODc2LjAxOS4zNzIuMTgxIDEuNDE0LjQ1OSAyLjY1Mi4yNzcgMS4yMzguNjcgMi42OTUgMS4xNDIgMy45ODIuNDczIDEuMjg3IDEuMDQ2IDIuNDA3IDEuNTkgMi45MzcuMjc0LjI2NS41MTIuMzcyLjcyOC4zNjMuMjE3LS4wMS40NzgtLjEzNS43OTctLjUxOGE0My4yNDQgNDMuMjQ0IDAgMCAxIDEuODEtMi4wNDggMy40OTcgMy40OTcgMCAwIDEtMS4xNjctMy4xNWMuMTAzLS43MzkuMTE3LTEuNDMuMTA1LTEuOTc2LS4wMTItLjUzMi0uMDUtLjg4Ni0uMDUtMS4xMDdhLjMzNi4zMzYgMCAwIDEgMC0uMDE5di0uMDA1bC0uMDAxLS4wMDZ2LS4wMDFhOS44OTMgOS44OTMgMCAwIDEgLjU5Mi0zLjM3NmMuMjgtLjc0NC42OTctMS41IDEuMzIyLTIuMTEyLS42MTQtLjIwMi0xLjcwNC0uNTEtMi44ODQtLjU2OGE3LjYwMyA3LjYwMyAwIDAgMC0uMzgtLjAxek0xOC4xOTkgNi45Yy0uNjc5LjAwOS0xLjA2LjE4NC0xLjI2LjQxMy0uMjgzLjMyNS0uMzEuODk1LS4xMzQgMS41OTcuMTc1LjcwMy41MzcgMS40ODkuODc3IDIuMTQyLjE3LjMyNy4zMzUuNjIxLjQ2OC44Ni4xMzQuMjQuMjMyLjQxLjI5Mi41NTUuMDU1LjEzNC4xMTYuMjUyLjE3OC4zNjIuMjYzLS41NTUuMzEtMS4xLjI4My0xLjY2OC0uMDM1LS43MDMtLjE5OC0xLjQyMi0uMTc0LTIuMTUuMDI3LS44NTEuMTk1LTEuNDA1LjIxLTIuMDYzYTUuNzkzIDUuNzkzIDAgMCAwLS43NC0uMDQ4em0tOC4yMzQuMTE1YTIuODIgMi44MiAwIDAgMC0uNjE2LjA3NCA0LjY2NSA0LjY2NSAwIDAgMC0xLjE1My40NDkgMi40MTcgMi40MTcgMCAwIDAtLjM0OS4yMjhsLS4wMjIuMDJjLjAwNi4xNDYuMDM1LjUuMDQ3IDEuMDIxLjAxMi41Ny0uMDAyIDEuMjk3LS4xMTIgMi4wODQtLjIzOSAxLjcxIDEuMDAyIDMuMTI2IDIuNDYgMy4xMjguMDg1LS4zNTEuMjI1LS43MDcuMzY1LTEuMDgyLjQwNi0xLjA5NCAxLjIwNS0xLjg5Mi41MzItNS4wMDYtLjExLS41MS0uMzI4LS43MTYtLjYyOC0uODMyYTEuNDc0IDEuNDc0IDAgMCAwLS41MjQtLjA4NHptNy45MTcuMjA0aC4wNWMuMDY2LjAwMi4xMjcuMDA5LjE4LjAyMi4wNTQuMDEyLjEuMDMuMTM4LjA1NWEuMTY0LjE2NCAwIDAgMSAuMDc1LjExbC0uMDAxLjAwOGguMDAxLS4wMDFhLjI0LjI0IDAgMCAxLS4wMzUuMTM1LjY2OC42NjggMCAwIDEtLjExLjE1LjY3Ny42NzcgMCAwIDEtLjM4Ni4yMTIuNTkuNTkgMCAwIDEtLjQxLS4xMDMuNjA4LjYwOCAwIDAgMS0uMTMtLjExOC4yNi4yNiAwIDAgMS0uMDYzLS4xMjcuMTcuMTcgMCAwIDEgLjA0Mi0uMTI4LjM4NC4zODQgMCAwIDEgLjExNy0uMDljLjA5Ni0uMDU0LjIyNi0uMDk0LjM3My0uMTE2LjA1NS0uMDA4LjEwOS0uMDEyLjE2LS4wMTN6bS03LjgyLjE2OGMuMDUzIDAgLjEwOS4wMDUuMTY2LjAxMy4xNTMuMDIxLjI4OS4wNjIuMzkzLjEyMmEuNDQ2LjQ0NiAwIDAgMSAuMTMzLjEwNi4yMjMuMjIzIDAgMCAxIC4wNTQuMTcuMzAyLjMwMiAwIDAgMS0uMDc1LjE1NC42NDkuNjQ5IDAgMCAxLS4xNDMuMTMuNjQuNjQgMCAwIDEtLjQ0OC4xMTMuNzI4LjcyOCAwIDAgMS0uNDItLjIyOC43MS43MSAwIDAgMS0uMTE4LS4xNjQuMjguMjggMCAwIDEtLjA0MS0uMTc3Yy4wMTUtLjEwOC4xMDQtLjE2NC4xOTEtLjE5NWEuODY2Ljg2NiAwIDAgMSAuMzA3LS4wNHptOS4wNiA3LjM0M2wtLjAwMy4wMDFjLS4xNDcuMDUzLS4yNjguMDc1LS4zNy4xMmEuNDUyLjQ1MiAwIDAgMC0uMjM5LjIxNGMtLjA2My4xMTUtLjExNy4zMTktLjEwMS42NjZhLjUxLjUxIDAgMCAwIC4xNDguMDdjLjE3MS4wNTIuNDU4LjA4Ni43NzguMDgxLjYzOC0uMDA3IDEuNDIzLS4xNTYgMS44NC0uMzVhMy45NSAzLjk1IDAgMCAwIC45NDMtLjYxNWgtLjAwMWMtMS4zOTMuMjg4LTIuMTguMjExLTIuNjYzLjAxMmExLjMxNSAxLjMxNSAwIDAgMS0uMzMyLS4yem0tOC4wMzEuMDk0aC0uMDIxYy0uMDUzLjAwNS0uMTMuMDIzLS4yNzkuMTg4LS4zNDguMzktLjQ3LjYzNS0uNzU3Ljg2NC0uMjg3LjIyOC0uNjYuMzUtMS40MDUuNTAzLS4yMzYuMDQ4LS4zNzEuMTAxLS40NjEuMTQ0LjAyOS4wMjQuMDI2LjAzLjA3LjA1My4xMDkuMDYuMjQ5LjExMy4zNjIuMTQyLjMyLjA4Ljg0Ni4xNzMgMS4zOTUuMDguNTQ5LS4wOTQgMS4xMi0uMzU3IDEuNjA3LTEuMDQuMDg0LS4xMTguMDkzLS4yOTIuMDI0LS40NzktLjA3LS4xODctLjIyMy0uMzQ4LS4zMzEtLjM5M2EuNjUzLjY1MyAwIDAgMC0uMjA0LS4wNnoiLz48L3N2Zz4=;" vertex="1" parent="1">
          <mxGeometry x="510" y="145" width="100" height="100" as="geometry" />
        </mxCell>
      </root>
    </mxGraphModel>
  </diagram>
</mxfile>
